<mxfile host="Electron" agent="Mozilla/5.0 (Windows NT 10.0; Win64; x64) AppleWebKit/537.36 (KHTML, like Gecko) draw.io/28.0.6 Chrome/138.0.7204.100 Electron/37.2.3 Safari/537.36" version="28.0.6">
  <diagram name="Page-1" id="h6SIbnk2KUNBwTkXYD1M">
    <mxGraphModel dx="1188" dy="701" grid="1" gridSize="10" guides="1" tooltips="1" connect="1" arrows="1" fold="1" page="1" pageScale="1" pageWidth="827" pageHeight="1169" math="0" shadow="0">
      <root>
        <mxCell id="0" />
        <mxCell id="1" parent="0" />
        <mxCell id="RJAZ5B4Ulr-mCwqTg8RM-27" style="edgeStyle=orthogonalEdgeStyle;rounded=0;orthogonalLoop=1;jettySize=auto;html=1;" edge="1" parent="1" source="RJAZ5B4Ulr-mCwqTg8RM-5" target="RJAZ5B4Ulr-mCwqTg8RM-9">
          <mxGeometry relative="1" as="geometry">
            <Array as="points">
              <mxPoint x="800" y="540" />
              <mxPoint x="800" y="540" />
            </Array>
          </mxGeometry>
        </mxCell>
        <mxCell id="RJAZ5B4Ulr-mCwqTg8RM-35" value="(2) WOL REQ" style="edgeLabel;html=1;align=center;verticalAlign=middle;resizable=0;points=[];" vertex="1" connectable="0" parent="RJAZ5B4Ulr-mCwqTg8RM-27">
          <mxGeometry x="-0.1842" relative="1" as="geometry">
            <mxPoint x="10" y="15" as="offset" />
          </mxGeometry>
        </mxCell>
        <mxCell id="RJAZ5B4Ulr-mCwqTg8RM-5" value="" style="points=[[0,0.64,0],[0.2,0.15,0],[0.4,0.01,0],[0.79,0.25,0],[1,0.65,0],[0.8,0.86,0],[0.41,1,0],[0.16,0.86,0]];verticalLabelPosition=bottom;sketch=0;html=1;verticalAlign=top;aspect=fixed;align=center;pointerEvents=1;shape=mxgraph.cisco19.cloud;fillColor=#186180;strokeColor=none;" vertex="1" parent="1">
          <mxGeometry x="620" y="345.01" width="266.67" height="160" as="geometry" />
        </mxCell>
        <mxCell id="RJAZ5B4Ulr-mCwqTg8RM-2" value="" style="shape=image;verticalLabelPosition=bottom;labelBackgroundColor=default;verticalAlign=top;aspect=fixed;imageAspect=0;editableCssRules=.*;image=data:image/svg+xml,PHN2ZyB4bWxucz0iaHR0cDovL3d3dy53My5vcmcvMjAwMC9zdmciIHZpZXdCb3g9IjAuMDAwMDIyODg4MTgzNTkzNzUgMC4wMDAwMjI4ODgxODM1OTM3NSAyNzguOTYwMjM1NTk1NzAzMSAyNzUuMTMwNzM3MzA0Njg3NSIgaGVpZ2h0PSIyNzUuMTMwNzM3MzA0Njg3NSIgd2lkdGg9IjI3OC45NjAyMzU1OTU3MDMxIiB4bWw6c3BhY2U9InByZXNlcnZlIiB2ZXJzaW9uPSIxLjEiIGlkPSJzdmc0MTM2Ij48bWV0YWRhdGEgaWQ9Im1ldGFkYXRhNDE0MiI+aW1hZ2Uvc3ZnK3htbDwvbWV0YWRhdGE+PGRlZnMgaWQ9ImRlZnM0MTQwIi8+PGcgdHJhbnNmb3JtPSJtYXRyaXgoMS4yNSwwLDAsLTEuMjUsLTM4Ni43MDEsNTA5LjYxMjYzKSIgaWQ9Imc0MTQ0Ij48cGF0aCBpZD0icGF0aDQxNTYiIHN0eWxlPSJmaWxsOiNmMzc3MWM7ZmlsbC1vcGFjaXR5OjE7ZmlsbC1ydWxlOmV2ZW5vZGQ7c3Ryb2tlOm5vbmUiIGQ9Im0gNDA5Ljc1MDYsMjI1LjMxNjMgYyA1LjU4NzYsNS4wNjEgMTQuMjIzNCw0LjYzMzYgMTkuMjg0MSwtMC45NTQxIDQuNzI2NywtNS4yMTkxIDQuNjY1MiwtMTMuMDk2NiAwLjA4MzksLTE4LjIzNzMgbCAzLjE1ODksLTMuOTU2IDExLjY0NTYsLTE0LjU4MzQgLTEzLjM2MjIsMTMuMDI4MyAtMy42MjUsMy41MzQ1IGMgLTUuNTY3OCwtNC4wNTE4IC0xMy40MTMsLTMuMzM0OSAtMTguMTM5NywxLjg4NCAtNS4wNjA3LDUuNTg3NiAtNC42MzMzLDE0LjIyMzQgMC45NTQ0LDE5LjI4NCB6IG0gMTUuMjQyMiwtMTQuMDI1MiAtMi4xNTMyLDIuNjk2OSBjIDAuNDExLDEuMzM4NSAwLjEyNzIsMi44NTI4IC0wLjg4MDgsMy45NjU2IC0xLjUyMTksMS42ODA3IC00LjExOTMsMS44MDkxIC01Ljc5OTksMC4yODcyIC0xLjY4MDQsLTEuNTIyMiAtMS44MDkxLC00LjExOTYgLTAuMjg2OSwtNS44IDEuMDA3NywtMS4xMTI5IDIuNDg2OCwtMS41NDQ5IDMuODU5NCwtMS4yNjc5IGwgMi40NzA5LC0yLjQwOTIgYyAtMi44MzYsLTEuNDUwOCAtNi40MDAzLC0wLjg4OTIgLTguNjQwOCwxLjU4NDYgLTIuNjc3NiwyLjk1NjIgLTIuNDUxNCw3LjUyNTEgMC41MDQ4LDEwLjIwMjcgMi45NTY2LDIuNjc3NiA3LjUyNTQsMi40NTE0IDEwLjIwMzEsLTAuNTA0OCAyLjI0MDIsLTIuNDczOCAyLjQ0NzEsLTYuMDc2MSAwLjcyMzQsLTguNzU1MSIvPjxwYXRoIGlkPSJwYXRoNDE1OCIgc3R5bGU9ImZpbGw6IzNjNTI4MDtmaWxsLW9wYWNpdHk6MTtmaWxsLXJ1bGU6ZXZlbm9kZDtzdHJva2U6bm9uZSIgZD0ibSAzNjYuNzE2NCwyMjguNjM3MSBjIDIuNDE2OCwwIDQuNjg5NCwtMC42MTAzIDYuODE3LC0xLjgxNSAyLjExOTgsLTEuMjA0MSAzLjc4MiwtMi44NTAyIDQuOTcwNiwtNC45MTM4IDEuMTk2MiwtMi4wNzE5IDEuNzkwNiwtNC4zMDQyIDEuNzkwNiwtNi43MDQ2IDAsLTIuNDE3MSAtMC42MDI2LC00LjY3MzQgLTEuNzk4OCwtNi43NzczIC0xLjIwNDIsLTIuMTAzOSAtMi44MzQ0LC0zLjc0MTcgLTQuOTA2MiwtNC45MzAzIC0yLjA3MTYsLTEuMTgwNiAtNC4zNTIzLC0xLjc3NDIgLTYuODQ5MSwtMS43NzQyIC0zLjY2OTQsMCAtNi44MDEyLDEuMzA4NyAtOS4zOTQ5LDMuOTE4IC0yLjU5MzQsMi42MDk5IC0zLjg5MzksNS43ODE5IC0zLjg5MzksOS41MTU0IDAsMy45OTg1IDEuNDY5Miw3LjMzMTIgNC4zOTk5LDkuOTk2OSAyLjU2OTYsMi4zMjA1IDUuNTI0MiwzLjQ4NDkgOC44NjQ4LDMuNDg0OSB6IG0gNzAuODM3LC0wLjY1ODIgNi40OTYxLDAgMCwtMTIuMzMzNSBjIDAsLTIuMzkzMyAwLjE2MDUsLTQuMDYzMiAwLjQ4OTYsLTQuOTk0OSAwLjMzNzYsLTAuOTMxMiAwLjg1OTQsLTEuNjYxNyAxLjU4OTksLTIuMTc2MiAwLjczMTEsLTAuNTIxNiAxLjYzMDIsLTAuNzc4NCAyLjY5ODMsLTAuNzc4NCAxLjA2NzgsMCAxLjk2NywwLjI1NjggMi43MTM5LDAuNzYyNSAwLjc0NjYsMC41MTM3IDEuMzAwOCwxLjI2MDkgMS42NjIyLDIuMjQ4MiAwLjI2NDUsMC43Mzg3IDAuMzkzMiwyLjMxMjggMC4zOTMyLDQuNzI5OSBsIDAsMTIuNTQyNCA2LjQ0ODMsMCAwLC0xMC44NDg0IGMgMCwtNC40NzIzIC0wLjM1MzUsLTcuNTMyIC0xLjA2MDIsLTkuMTc3OCAtMC44NTkyLC0yLjAwNzIgLTIuMTI4MywtMy41NDkyIC0zLjgwNjQsLTQuNjE3MyAtMS42NzgxLC0xLjA3NTUgLTMuODE0LC0xLjYxMzUgLTYuMzk5MiwtMS42MTM1IC0yLjgxMDUsMCAtNS4wNzQ4LDAuNjI2MiAtNi44MDk0LDEuODc4OCAtMS43MzQyLDEuMjYwMyAtMi45NTUxLDMuMDAzIC0zLjY2MTUsNS4yNTEyIC0wLjQ5OCwxLjU1IC0wLjc1NDgsNC4zNzY0IC0wLjc1NDgsOC40NjM0IGwgMCwxMC42NjM2IHogbSA4MS4zOTc0LDAuNjU4MiBjIDIuNDE3MSwwIDQuNjg5NiwtMC42MTAzIDYuODE3LC0xLjgxNSAyLjEyLC0xLjIwNDEgMy43ODIsLTIuODUwMiA0Ljk3MDYsLTQuOTEzOCAxLjE5NjUsLTIuMDcxOSAxLjc5MDYsLTQuMzA0MiAxLjc5MDYsLTYuNzA0NiAwLC0yLjQxNzEgLTAuNjAyNCwtNC42NzM0IC0xLjc5ODYsLTYuNzc3MyAtMS4yMDQxLC0yLjEwMzkgLTIuODM0NiwtMy43NDE3IC00LjkwNjUsLTQuOTMwMyAtMi4wNzEyLC0xLjE4MDYgLTQuMzUyLC0xLjc3NDIgLTYuODQ4OCwtMS43NzQyIC0zLjY2OTcsMCAtNi44MDExLDEuMzA4NyAtOS4zOTQ4LDMuOTE4IC0yLjU5MzQsMi42MDk5IC0zLjg5NDMsNS43ODE5IC0zLjg5NDMsOS41MTU0IDAsMy45OTg1IDEuNDY5NSw3LjMzMTIgNC40MDAzLDkuOTk2OSAyLjU2OTYsMi4zMjA1IDUuNTI0MSwzLjQ4NDkgOC44NjQ1LDMuNDg0OSB6IG0gMC4wOTYzLC02LjA0NjUgYyAtMS45OTEzLDAgLTMuNjUzNSwtMC42OTgyIC00Ljk3ODIsLTIuMDg3OCAtMS4zMjQ5LC0xLjM4OTIgLTEuOTgzNiwtMy4xNjMxIC0xLjk4MzYsLTUuMzIzNCAwLC0yLjIzMjMgMC42NTA1LC00LjAzMTIgMS45Njc1LC01LjQxMjIgMS4zMDg3LC0xLjM4MTEgMi45NjI4LC0yLjA3MTMgNC45NzAzLC0yLjA3MTMgMi4wMDcyLDAgMy42Nzc2LDAuNjk4NSA1LjAxMDUsMi4wOTU0IDEuMzMyOCwxLjM5NzIgMS45OTk1LDMuMTg3OCAxLjk5OTUsNS4zODgxIDAsMi4xOTIgLTAuNjUwNSwzLjk3NDQgLTEuOTU5Myw1LjM0NzggLTEuMzE2NywxLjM3MjggLTIuOTg3NCwyLjA2MzQgLTUuMDI2NywyLjA2MzQgeiBtIC0yNS43ODMzLDE0LjgxNDcgNi4zOTk4LDAgMCwtOS40MjY0IDMuODA1NSwwIDAsLTUuNTMyNiAtMy44MDU1LDAgMCwtMjAuMDY2MiAtNi4zOTk4LDAgMCwyMC4wNjYyIC0zLjI5MjUsMCAwLDUuNTMyNiAzLjI5MjUsMCAwLDkuNDI2NCB6IG0gLTE0LjQ0NTQsMCA2LjM5OTUsMCAwLC05LjQyNjQgMy44MDU1LDAgMCwtNS41MzI2IC0zLjgwNTUsMCAwLC0yMC4wNjYyIC02LjM5OTUsMCAwLDIwLjA2NjIgLTMuMjkyNywwIDAsNS41MzI2IDMuMjkyNywwIDAsOS40MjY0IHogbSAtOS44MDQ3LDEuMTA4IGMgMS4xMjQyLDAgMi4wOTYyLC0wLjQwOTYgMi45MDY5LC0xLjIyMDYgMC44MDI4LC0wLjgxODYgMS4yMDQyLC0xLjgwNjggMS4yMDQyLC0yLjk2MjcgMCwtMS4xNDg0IC0wLjM5MzIsLTIuMTI3NyAtMS4xOTYzLC0yLjkzMDggLTAuODAyNywtMC44MTEgLTEuNzU4LC0xLjIxMjQgLTIuODY2NCwtMS4yMTI0IC0xLjE0ODYsMCAtMi4xMjgyLDAuNDA5NiAtMi45MzEsMS4yMzY4IC0wLjgxMDcsMC44MTg2IC0xLjIxMjYsMS44MjI3IC0xLjIxMjYsMi45OTQ1IDAsMS4xMzI1IDAuNDAxOSwyLjA5NjIgMS4xOTY3LDIuODk5IDAuODAyOCwwLjc5NDggMS43NjY2LDEuMTk2MiAyLjg5ODUsMS4xOTYyIHogbSAtMy4yMjgxLC0xMC41MzQ0IDYuNDQ4MiwwIDAsLTI1LjU5ODggLTYuNDQ4MiwwIDAsMjUuNTk4OCB6IG0gLTE1Ni40MjQ4LDAgNi40NDc0LDAgMCwtMi45NDc0IGMgMS4wOTk4LDEuMjEyOSAyLjMyMDQsMi4xMTIxIDMuNjYxMiwyLjcwNjUgMS4zNDE2LDAuNTkzOCAyLjgwMjMsMC44OTkxIDQuMzg0OSwwLjg5OTEgMS41OTc2LDAgMy4wNDMsLTAuMzkzNyA0LjMyNzcsLTEuMTgwNiAxLjI4NDYsLTAuNzg2MyAyLjMyMDQsLTEuOTI3MyAzLjEwNzMsLTMuNDM2NyAxLjAxOTksMS41MDk0IDIuMjcyNSwyLjY1MDQgMy43NDk5LDMuNDM2NyAxLjQ4NTEsMC43ODY5IDMuMDk5NywxLjE4MDYgNC44NTc4LDEuMTgwNiAxLjgyMjksMCAzLjQyMDgsLTAuNDI1NyA0LjgwMTksLTEuMjc3IDEuMzgxLC0wLjg0MyAyLjM2ODksLTEuOTUxMSAyLjk3MSwtMy4zMTU5IDAuNjEwMywtMS4zNjUyIDAuOTA3NiwtMy41ODE2IDAuOTA3NiwtNi42NTY2IGwgMCwtMTUuMDA3NSAtNi40NjQ0LDAgMCwxMi45ODQxIGMgMCwyLjkwNjQgLTAuMzYwOCw0Ljg2NTkgLTEuMDgzNyw1Ljg5MzUgLTAuNzIyOCwxLjAyNzYgLTEuODA2OCwxLjU0MiAtMy4yNDQyLDEuNTQyIC0xLjA5OTksMCAtMi4wODc4LC0wLjMxMzIgLTIuOTU0OSwtMC45Mzk5IC0wLjg3NSwtMC42MjY1IC0xLjUxNzEsLTEuNDkzNiAtMS45NDI4LC0yLjYwMTEgLTAuNDI1NSwtMS4xMDgxIC0wLjYzNDQsLTIuODgyOCAtMC42MzQ0LC01LjMzMiBsIDAsLTExLjU0NjYgLTYuNDcyMSwwIDAsMTIuMzk3OSBjIDAsMi4yODgxIC0wLjE2ODcsMy45NTAzIC0wLjUwNTcsNC45Nzg1IC0wLjMzNzMsMS4wMjc1IC0wLjg0MzMsMS43OTAxIC0xLjUxNzcsMi4yODc4IC0wLjY3NDksMC41MDYgLTEuNDg1OSwwLjc1NTQgLTIuNDQxMiwwLjc1NTQgLTEuMDY4MSwwIC0yLjAzOTIsLTAuMzIxNCAtMi45MDY2LC0wLjk1NTggLTAuODY3MSwtMC42MzQxIC0xLjUyNTYsLTEuNTI1NiAtMS45NTExLC0yLjY2NTcgLTAuNDMzNywtMS4xNDgzIC0wLjY1MDUsLTIuOTQ2OSAtMC42NTA1LC01LjQxMjUgbCAwLC0xMS4zODU2IC02LjQ0NzQsMCAwLDI1LjU5ODggeiBtIDkxLjg0MjUsLTMuNTgxNSAtMy45NzQ1LC0zLjk3NTEgYyAtMS42MTM1LDEuNTk4NSAtMy4wNzUzLDIuNDAxMyAtNC4zOTIzLDIuNDAxMyAtMC43MjI4LDAgLTEuMjkyOCwtMC4xNTI4IC0xLjY5NDIsLTAuNDU3OCAtMC40MDk2LC0wLjMwNDggLTAuNjE4LC0wLjY5MDggLTAuNjE4LC0xLjE0MDEgMCwtMC4zNDUgMC4xMzY0LC0wLjY2NjcgMC4zOTMyLC0wLjk1NTMgMC4yNTY4LC0wLjI4OTQgMC44OTkxLC0wLjY4MjYgMS45MTksLTEuMTg4OSBsIDIuMzQ0NiwtMS4xNzIxIGMgMi40ODExLC0xLjIyODggNC4xODM2LC0yLjQ3MjkgNS4xMDcyLC0zLjc0MTQgMC45MjM1LC0xLjI2OTQgMS4zODkyLC0yLjc2MyAxLjM4OTIsLTQuNDczMSAwLC0yLjI3MiAtMC44MzU0LC00LjE2NzIgLTIuNTA1MiwtNS42OTI4IC0xLjY3MDUsLTEuNTE3NyAtMy45MTA3LC0yLjI4MDIgLTYuNzEzMSwtMi4yODAyIC0zLjczMzgsMCAtNi43MTI3LDEuNDYwNyAtOC45NDUsNC4zNzU1IGwgMy45NTg2LDQuMzA0NSBjIDAuNzQ2OSwtMC44NzU3IDEuNjMwMiwtMS41OTAzIDIuNjQxOSwtMi4xMjgzIDEuMDExNywtMC41Mzc0IDEuOTEwOCwtMC44MTEgMi42OTc1LC0wLjgxMSAwLjg0MzUsMCAxLjUyNjEsMC4yMDA3IDIuMDQwMSwwLjYxMDMgMC41MjE4LDAuNDA5NiAwLjc3ODksMC44NzU2IDAuNzc4OSwxLjQxMzcgMCwwLjk4NzMgLTAuOTMxNywxLjk1MSAtMi43OTQ3LDIuODkwNCBsIC0yLjE2NzYsMS4wODQgYyAtNC4xNDM3LDIuMDg3NyAtNi4yMDc2LDQuNjk3MyAtNi4yMDc2LDcuODI4NyAwLDIuMDI0IDAuNzc5MiwzLjc1ODIgMi4zMzcyLDUuMTg3NCAxLjU1NzMsMS40MzcyIDMuNTU3MiwyLjE2IDUuOTkwMSwyLjE2IDEuNjYyLDAgMy4yMTk2LC0wLjM2OTYgNC42ODg4LC0xLjEwMDEgMS40Njk4LC0wLjczMDggMi43MTQyLC0xLjc3NDUgMy43MjU5LC0zLjEzOTYgeiBtIC0zNC4zOTA1LC0xLjgwNjggYyAtMS45OTE0LDAgLTMuNjUzNiwtMC42OTgyIC00Ljk3ODUsLTIuMDg3OCAtMS4zMjQ2LC0xLjM4OTIgLTEuOTgzNCwtMy4xNjMxIC0xLjk4MzQsLTUuMzIzNCAwLC0yLjIzMjMgMC42NTAzLC00LjAzMTIgMS45NjcyLC01LjQxMjIgMS4zMDkxLC0xLjM4MTEgMi45NjMxLC0yLjA3MTMgNC45NzAzLC0yLjA3MTMgMi4wMDc1LDAgMy42NzgsMC42OTg1IDUuMDEwNSwyLjA5NTQgMS4zMzI5LDEuMzk3MiAxLjk5OTYsMy4xODc4IDEuOTk5Niw1LjM4ODEgMCwyLjE5MiAtMC42NTA2LDMuOTc0NCAtMS45NTkzLDUuMzQ3OCAtMS4zMTY3LDEuMzcyOCAtMi45ODcyLDIuMDYzNCAtNS4wMjY0LDIuMDYzNCIvPjxwYXRoIGlkPSJwYXRoNDE2MCIgc3R5bGU9ImZpbGw6I2YzNzcxYztmaWxsLW9wYWNpdHk6MTtmaWxsLXJ1bGU6ZXZlbm9kZDtzdHJva2U6bm9uZSIgZD0ibSA0MjAuOTQ0OSwyMzcuOTg1MiAzLjEwMzQsNDIuMzk0NyAyLjUxOTQsMzQuNDI0OCBjIDUuMTkxNiwyLjE5NCA4LjgzNTYsNy4zMzQ0IDguODM1NiwxMy4zMjQgMCw3Ljk4MzcgLTYuNDc0NiwxNC40NTg0IC0xNC40NTg0LDE0LjQ1ODQgLTcuOTgzOCwwIC0xNC40NTg0LC02LjQ3NDcgLTE0LjQ1ODQsLTE0LjQ1ODQgMCwtNS45ODk2IDMuNjQzOSwtMTEuMTMgOC44MzU2LC0xMy4zMjQgbCAyLjUxOTQsLTM0LjQyNDggMy4xMDM0LC00Mi4zOTQ3IHoiLz48cGF0aCBpZD0icGF0aDQxNjIiIHN0eWxlPSJmaWxsOiMzYzUyODA7ZmlsbC1vcGFjaXR5OjE7ZmlsbC1ydWxlOmV2ZW5vZGQ7c3Ryb2tlOm5vbmUiIGQ9Im0gMzIyLjIwMDMsMzI4LjE4MzkgYyAwLC0yNC40NTgxIDguOTQyMiwtNDcuMzUyNyAyNC40NTA4LC02NS4wNDM3IGwgLTkuMzQ3LC04LjM3ODcgYyAtMTcuNTAwOCwxOS45MTU5IC0yNy42NTIyLDQ1Ljc4MjQgLTI3LjY1MjIsNzMuNDIyNCAwLDMxLjE0NCAxMi44MDEsNTkuMzAzNyAzMy40MjU4LDc5LjUwNjIgbCAwLjQ3LC0wLjQyMTUgMjcuNjQ3NCwtMjQuNzg0NSBDIDM0NS4yMTExLDM1OC42NjQgMzM5LjgyOTgsMzE5LjkyNiAzNTcuOTA4NiwyOTAuMDg0IGwgOS41NDQzLDguNTU1NiBjIC0xMy43ODEyLDI0Ljg5NTggLTguNTMwNiw1Ni4zNDIyIDEzLjEzOTQsNzUuNDIgbCA5LjQ2NjYsLTguNDg0NCA4LjQxOTcsLTcuNTQ5MiA4LjczMzMsLTcuODI4OCBjIC0zLjI2NjQsLTIuMDQ4IC02LjA0MjksLTQuODA0NCAtOC4xMTQ4LC04LjA1MzggLTIuNTYwMiwtNC4wMTU4IC00LjA0MzksLTguNzg0MyAtNC4wNDM5LC0xMy44OTgyIDAsLTExLjQwMDEgNy4zNzIxLC0yMS4wODE2IDE3LjYwNzcsLTI0LjUzNzMgbCAwLjg4MDcsLTEyLjAzMDggYyAtMTcuMDUzOCwzLjQzNSAtMjkuOTAwOSwxOC41MDM3IC0yOS45MDA5LDM2LjU2ODEgMCw4LjA0MzggMi41NDcyLDE1LjQ5NDEgNi44NzkxLDIxLjU4NzUgbCAtOC4zNTYsNy40OTIyIC0wLjAzMTUsMC4wMjg0IGMgLTEzLjY5ODQsLTE4LjE5NTMgLTEyLjg1MiwtNDMuNDU2MyAxLjg5OSwtNjAuNzA0NSBMIDM1NS45OTY5LDI3MS41MTggYyAtMjcuNjAwNCwzMS42MDcxIC0yOC4zODg0LDc4LjUxOTEgLTEuOTUzMywxMTEuMDE0MyBsIC05LjM1MTUsOC4zODM1IGMgLTEyLjkwNywtMTUuNjcwMiAtMjEuMDgwNCwtMzUuMzg0OSAtMjIuMzI1NCwtNTYuOTU0OSBsIC0wLjA1NywtMC4wNjM3IDAuMDUwNywtMC4wNDU0IGMgLTAuMTA2MywtMS44NzYgLTAuMTYwMSwtMy43NjU1IC0wLjE2MDEsLTUuNjY3OSB6IG0gMTA3LjAyODYsLTI0LjQ3NiBjIDEwLjIzNTYsMy40NTU3IDE3LjYwNzYsMTMuMTM3NSAxNy42MDc2LDI0LjUzNzMgMCw1LjExMzkgLTEuNDgzNiw5Ljg4MjQgLTQuMDQzNiwxMy44OTc5IC0yLjA3MTgsMy4yNDk0IC00Ljg0ODQsNi4wMDYxIC04LjExNDQsOC4wNTM4IGwgOC43MzI5LDcuODI4OCA4LjQyMDYsNy41NDg2IC04ZS00LDllLTQgOS40NjY2LDguNDg0NCBjIDIxLjY3LC0xOS4wNzc4IDI2LjkyMDYsLTUwLjUyNDIgMTMuMTM5NCwtNzUuNDIgbCA5LjU0NDIsLTguNTU1NiBjIDE4LjA3ODYsMjkuODQyIDEyLjY5NzYsNjguNTggLTEzLjI4NjUsOTIuNDAwMSBsIDI3LjY0ODYsMjQuNzg1NiAwLjQ2ODgsMC40MjA0IGMgMjAuNjI0OSwtMjAuMjAyNSAzMy40MjU5LC00OC4zNjIyIDMzLjQyNTksLTc5LjUwNjIgMCwtMjcuNjQgLTEwLjE1MTUsLTUzLjUwNjUgLTI3LjY1MjMsLTczLjQyMjQgbCAtOS4zNDY5LDguMzc4NyBjIDE1LjUwODMsMTcuNjkxIDI0LjQ1MDUsNDAuNTg1NiAyNC40NTA1LDY1LjA0MzcgMCwxLjkwMjQgLTAuMDUzNiwzLjc5MTkgLTAuMTU5OSw1LjY2NzkgbCAwLjA1MDcsMC4wNDU0IC0wLjA1NjksMC4wNjM3IGMgLTEuMjQ1LDIxLjU3IC05LjQxODQsNDEuMjg0NyAtMjIuMzI1Nyw1Ni45NTQ5IGwgLTkuMzUxMiwtOC4zODM1IGMgMjYuNDM1LC0zMi40OTUyIDI1LjY0NjcsLTc5LjQwNzIgLTEuOTUzNCwtMTExLjAxNDMgbCAtMjguMDM0NiwyNS4xMzA4IGMgMTQuNzUxMiwxNy4yNDgyIDE1LjU5NzYsNDIuNTA5MiAxLjg5OTIsNjAuNzA0NSBsIC0wLjAzMTcsLTAuMDI4NCAtOC4zNTYsLTcuNDkyMiBjIDQuMzMxOSwtNi4wOTM2IDYuODc5MSwtMTMuNTQzOSA2Ljg3OTEsLTIxLjU4NzUgMCwtMTguMDY0NCAtMTIuODQ3MiwtMzMuMTMyOCAtMjkuOTAwNywtMzYuNTY4MSBsIDAuODgwNSwxMi4wMzA4IHoiLz48L2c+PC9zdmc+;" vertex="1" parent="1">
          <mxGeometry x="680" y="395.39" width="69" height="68.01" as="geometry" />
        </mxCell>
        <mxCell id="RJAZ5B4Ulr-mCwqTg8RM-3" value="(Broker)" style="shape=image;verticalLabelPosition=bottom;labelBackgroundColor=default;verticalAlign=top;aspect=fixed;imageAspect=0;editableCssRules=.*;image=data:image/svg+xml,PHN2ZyB4bWxucz0iaHR0cDovL3d3dy53My5vcmcvMjAwMC9zdmciIG92ZXJmbG93PSJ2aXNpYmxlIiB2aWV3Qm94PSI1MyAzMC43OTk5OTkyMzcwNjA1NDcgNTk0IDUzNi43MDAwMTIyMDcwMzEyIiB3aWR0aD0iNTk0IiBoZWlnaHQ9IjUzNi43MDAwMTIyMDcwMzEyIj48cGF0aCBmaWxsPSIjNjA2IiBkPSJNMTM1LjkgNDc2LjVsMy44IDguOSAzLjgtOS4xIDQuMS04LjUgMzkuNi03OGMuNy0xLjMgMS40LTIuNCAyLjItMy4xLjctLjcgMS42LTEuMyAyLjUtMS42LjktLjQgMi0uNSAzLjEtLjVoMzEuNHYxNTQuMWgtMzEuNVY0NTBjMC00LjMuMi05IC42LTE0bC00MC44IDc5LjNjLTEuMyAyLjUtMyA0LjMtNS4xIDUuNi0yLjIgMS4zLTQuNiAxLjktNy40IDEuOWgtNC45Yy0yLjggMC01LjItLjYtNy40LTEuOXMtMy45LTMuMS01LjEtNS42bC00MS4xLTc5LjRjLjMgMi41LjUgNC45LjYgNy40bC4yIDYuN3Y4OC43SDUzVjM4NC41aDMxLjRjMS4yIDAgMi4yLjIgMy4xLjVhOS42MyA5LjYzIDAgMCAxIDIuNSAxLjZjLjcuNyAxLjUgMS44IDIuMiAzLjFsMzkuNyA3OC4zIDQgOC41em0yNTkuNS0xNWMwIDYuNi0uNyAxMy0yLjEgMTkuMXMtMy40IDExLjgtNS45IDE3LjJjLTIuNiA1LjQtNS44IDEwLjMtOS41IDE0LjktMy44IDQuNi04LjEgOC42LTEyLjkgMTIuMmwzOSA0Mi42aC0yOS40Yy00LjIgMC04LjEtLjUtMTEuNS0xLjUtMy41LTEtNi41LTMuMS05LjItNi4ybC0xOS4yLTIxLjVjLTMuMS42LTYuMyAxLjEtOS41IDEuNXMtNi41LjUtOS45LjVjLTEyIDAtMjIuOS0yLTMyLjgtNnMtMTguMy05LjYtMjUuMy0xNi43YTc0LjEzIDc0LjEzIDAgMCAxLTE2LjMtMjVjLTMuOC05LjYtNS44LTIwLTUuOC0zMS4xczEuOS0yMS41IDUuOC0zMS4xYTc0LjEzIDc0LjEzIDAgMCAxIDE2LjMtMjVjNy03LjEgMTUuNS0xMi42IDI1LjMtMTYuNiA5LjktNCAyMC44LTYgMzIuOC02czIyLjkgMiAzMi43IDYuMSAxOC4zIDkuNiAyNS4yIDE2LjdjNyA3LjEgMTIuNCAxNS40IDE2LjIgMjUgNC4xIDkuNSA2IDE5LjggNiAzMC45em0tMzYuNiAwYzAtNy42LTEtMTQuNS0zLTIwLjZzLTQuOC0xMS4zLTguNS0xNS41LTguMi03LjUtMTMuNi05LjdjLTUuNC0yLjMtMTEuNS0zLjQtMTguMy0zLjQtNi45IDAtMTMuMSAxLjEtMTguNSAzLjRzLTkuOSA1LjUtMTMuNiA5LjctNi41IDkuNC04LjUgMTUuNS0zIDEzLTMgMjAuNmMwIDcuNyAxIDE0LjYgMyAyMC43czQuOCAxMS4zIDguNSAxNS41IDguMyA3LjUgMTMuNiA5LjdjNS40IDIuMiAxMS41IDMuMyAxOC41IDMuMyA2LjggMCAxMi45LTEuMSAxOC4zLTMuM3M5LjktNS40IDEzLjYtOS43YzMuNy00LjIgNi41LTkuNCA4LjUtMTUuNXMzLTEzIDMtMjAuN3ptMTUxLTc3LjF2MjguNGgtNDEuNHYxMjUuOGgtMzUuOFY0MTIuOGgtNDEuNHYtMjguNGgxMTguNnptMTM3LjIgMHYyOC40aC00My40djEyNS44aC0zNS44VjQxMi44aC00MS40di0yOC40SDY0N3oiLz48cGF0aCBmaWxsPSIjZmZmIiBkPSJNMTk3LjEgMTU3LjZ2NDYuN2M3My44LjEgMTM0IDU5LjMgMTM1IDEzMi40aDQ1LjVjLTEuMS05OC4zLTgxLjUtMTc4LjEtMTgwLjUtMTc5LjF6bTAtOTYuNXY0Ni43YzEyNy40LjEgMjMxLjEgMTAyLjUgMjMyLjEgMjI4LjloNDUuNWMtMS0xNTEuNS0xMjUtMjc0LjYtMjc3LjYtMjc1LjZ6bTMwNS44IDE1Ni4ydi05NS45QzQ5MS4xIDEwNS4zIDQ3NyA4OCA0NjIuNSA3My42Yy0xNi0xNS45LTM0LjEtMzAuMS01Mi4zLTQyLjdIMzA5Yzg4LjMgMzEuOCAxNTkuMSAxMDAgMTkzLjkgMTg2LjR6Ii8+PHBhdGggZmlsbD0iIzYwNiIgZD0iTTE5Ny4xIDIwNC40djExNy4xYzAgOC40IDYuOCAxNS4zIDE1LjMgMTUuM0gzMzJjLTEtNzMuMi02MS4xLTEzMi40LTEzNC45LTEzMi40em0wLTk2LjZ2NDkuOGM5OSAuOSAxNzkuNCA4MC43IDE4MC40IDE3OS4xaDUxLjdjLTEtMTI2LjMtMTA0LjctMjI4LjgtMjMyLjEtMjI4Ljl6bTMwNS44IDIxMy42VjIxNy4zQzQ2OC4xIDEzMC45IDM5Ny4zIDYyLjcgMzA5IDMwLjhoLTk2LjZjLTguNCAwLTE1LjMgNi44LTE1LjMgMTUuM3YxNWMxNTIuNi45IDI3Ni42IDEyNCAyNzcuNiAyNzUuNmgxM2M4LjQgMCAxNS4yLTYuOCAxNS4yLTE1LjN6TTQ2Mi42IDczLjZjMTQuNSAxNC40IDI4LjYgMzEuNyA0MC40IDQ3LjhWNDYuMWMwLTguNC02LjgtMTUuMy0xNS4zLTE1LjNoLTc3LjNjMTggMTIuNiAzNi4yIDI2LjkgNTIuMiA0Mi44eiIvPjwvc3ZnPg==;fontStyle=1;fontColor=light-dark(#660066, #ededed);" vertex="1" parent="1">
          <mxGeometry x="770" y="400" width="45.09" height="40.77" as="geometry" />
        </mxCell>
        <mxCell id="RJAZ5B4Ulr-mCwqTg8RM-6" value="" style="rounded=1;whiteSpace=wrap;html=1;arcSize=21;absoluteArcSize=1;fillColor=none;strokeColor=light-dark(#005073, #ededed);" vertex="1" parent="1">
          <mxGeometry x="566.67" y="560" width="363.33" height="310" as="geometry" />
        </mxCell>
        <mxCell id="RJAZ5B4Ulr-mCwqTg8RM-7" value="" style="points=[[0.115,0.05,0],[0.335,0,0],[0.98,0.52,0],[1,0.71,0],[0.68,1,0],[0.065,0.76,0],[0,0.33,0],[0.68,0.33,0]];verticalLabelPosition=bottom;sketch=0;html=1;verticalAlign=top;aspect=fixed;align=center;pointerEvents=1;shape=mxgraph.cisco19.home_office;fillColor=#005073;strokeColor=none;" vertex="1" parent="1">
          <mxGeometry x="575.3599999999999" y="567.02" width="27.98" height="27.98" as="geometry" />
        </mxCell>
        <mxCell id="RJAZ5B4Ulr-mCwqTg8RM-8" value="PC or Server" style="shape=mxgraph.cisco.computers_and_peripherals.macintosh;sketch=0;html=1;pointerEvents=1;dashed=0;fillColor=#036897;strokeColor=#ffffff;strokeWidth=2;verticalLabelPosition=bottom;verticalAlign=top;align=center;outlineConnect=0;fontStyle=1;fontColor=light-dark(#036897, #ededed);" vertex="1" parent="1">
          <mxGeometry x="813.99" y="770" width="116.01" height="75" as="geometry" />
        </mxCell>
        <mxCell id="RJAZ5B4Ulr-mCwqTg8RM-21" style="edgeStyle=orthogonalEdgeStyle;rounded=0;orthogonalLoop=1;jettySize=auto;html=1;" edge="1" parent="1" source="RJAZ5B4Ulr-mCwqTg8RM-9" target="RJAZ5B4Ulr-mCwqTg8RM-20">
          <mxGeometry relative="1" as="geometry">
            <Array as="points">
              <mxPoint x="620" y="615" />
            </Array>
          </mxGeometry>
        </mxCell>
        <mxCell id="RJAZ5B4Ulr-mCwqTg8RM-36" value="(3) WOL REQ" style="edgeLabel;html=1;align=center;verticalAlign=middle;resizable=0;points=[];" vertex="1" connectable="0" parent="RJAZ5B4Ulr-mCwqTg8RM-21">
          <mxGeometry x="-0.3506" relative="1" as="geometry">
            <mxPoint x="-43" y="55" as="offset" />
          </mxGeometry>
        </mxCell>
        <mxCell id="RJAZ5B4Ulr-mCwqTg8RM-22" style="edgeStyle=orthogonalEdgeStyle;rounded=0;orthogonalLoop=1;jettySize=auto;html=1;" edge="1" parent="1" source="RJAZ5B4Ulr-mCwqTg8RM-9" target="RJAZ5B4Ulr-mCwqTg8RM-8">
          <mxGeometry relative="1" as="geometry">
            <mxPoint x="810.3399999999997" y="605" as="sourcePoint" />
            <Array as="points">
              <mxPoint x="880" y="620" />
            </Array>
          </mxGeometry>
        </mxCell>
        <mxCell id="RJAZ5B4Ulr-mCwqTg8RM-38" value="(5) WOL Packet" style="edgeLabel;html=1;align=center;verticalAlign=middle;resizable=0;points=[];" vertex="1" connectable="0" parent="RJAZ5B4Ulr-mCwqTg8RM-22">
          <mxGeometry x="0.1782" y="1" relative="1" as="geometry">
            <mxPoint y="17" as="offset" />
          </mxGeometry>
        </mxCell>
        <mxCell id="RJAZ5B4Ulr-mCwqTg8RM-26" style="edgeStyle=orthogonalEdgeStyle;rounded=0;orthogonalLoop=1;jettySize=auto;html=1;" edge="1" parent="1" source="RJAZ5B4Ulr-mCwqTg8RM-9" target="RJAZ5B4Ulr-mCwqTg8RM-5">
          <mxGeometry relative="1" as="geometry">
            <Array as="points">
              <mxPoint x="770" y="550" />
              <mxPoint x="770" y="550" />
            </Array>
          </mxGeometry>
        </mxCell>
        <mxCell id="RJAZ5B4Ulr-mCwqTg8RM-34" value="(6) ACK" style="edgeLabel;html=1;align=center;verticalAlign=middle;resizable=0;points=[];" vertex="1" connectable="0" parent="RJAZ5B4Ulr-mCwqTg8RM-26">
          <mxGeometry x="0.1087" y="2" relative="1" as="geometry">
            <mxPoint x="-3" y="-9" as="offset" />
          </mxGeometry>
        </mxCell>
        <mxCell id="RJAZ5B4Ulr-mCwqTg8RM-9" value="Router" style="shape=mxgraph.cisco.routers.wireless_router;sketch=0;html=1;pointerEvents=1;dashed=0;fillColor=#036897;strokeColor=#ffffff;strokeWidth=2;verticalLabelPosition=bottom;verticalAlign=top;align=center;outlineConnect=0;fontStyle=1;fontColor=light-dark(#036897, #ededed);" vertex="1" parent="1">
          <mxGeometry x="749" y="580" width="70" height="69.1" as="geometry" />
        </mxCell>
        <mxCell id="RJAZ5B4Ulr-mCwqTg8RM-24" style="edgeStyle=orthogonalEdgeStyle;rounded=0;orthogonalLoop=1;jettySize=auto;html=1;" edge="1" parent="1" source="RJAZ5B4Ulr-mCwqTg8RM-13" target="RJAZ5B4Ulr-mCwqTg8RM-5">
          <mxGeometry relative="1" as="geometry">
            <Array as="points">
              <mxPoint x="550" y="420" />
              <mxPoint x="550" y="420" />
            </Array>
          </mxGeometry>
        </mxCell>
        <mxCell id="RJAZ5B4Ulr-mCwqTg8RM-32" value="(1) WOL REQ" style="edgeLabel;html=1;align=center;verticalAlign=middle;resizable=0;points=[];" vertex="1" connectable="0" parent="RJAZ5B4Ulr-mCwqTg8RM-24">
          <mxGeometry x="-0.0343" relative="1" as="geometry">
            <mxPoint as="offset" />
          </mxGeometry>
        </mxCell>
        <mxCell id="RJAZ5B4Ulr-mCwqTg8RM-13" value="Client App" style="points=[[0.35,0,0],[0.98,0.51,0],[1,0.71,0],[0.67,1,0],[0,0.795,0],[0,0.65,0]];verticalLabelPosition=bottom;sketch=0;html=1;verticalAlign=top;aspect=fixed;align=center;pointerEvents=1;shape=mxgraph.cisco19.user;fillColor=#005073;strokeColor=none;fontStyle=1;fontColor=light-dark(#005073, #ededed);" vertex="1" parent="1">
          <mxGeometry x="350" y="404.4" width="50" height="50" as="geometry" />
        </mxCell>
        <mxCell id="RJAZ5B4Ulr-mCwqTg8RM-15" value="WebSocket" style="shape=image;verticalLabelPosition=bottom;labelBackgroundColor=default;verticalAlign=top;aspect=fixed;imageAspect=0;editableCssRules=.*;image=data:image/svg+xml,PHN2ZyB4bWxucz0iaHR0cDovL3d3dy53My5vcmcvMjAwMC9zdmciIHZpZXdCb3g9IjAgMCAxMDAgMTAwIiB3aWR0aD0iMTAwIiBoZWlnaHQ9IjEwMCI+JiN4YTsgIDxjaXJjbGUgc3Ryb2tlLXdpZHRoPSIxMCIgc3Ryb2tlPSIjM2M3OTBhIiBmaWxsPSIjZmZmIiByPSI0NSIgY3k9IjUwIiBjeD0iNTAiLz4mI3hhOyAgPHBhdGggZD0iTSA2Ni4yMyA2Mi4yMzcgTCA3NC4yMzUgNjIuMjM3IEwgNzQuMjM1IDQzLjAxOSBMIDY1LjIxOCAzNC4wMDIgTCA1OS41NTcgMzkuNjYxIEwgNjYuMjMgNDYuMzM0IEwgNjYuMjMgNjIuMjM3IFogTSA3NC4yNTQgNjYuMjQ5IEwgNjIuNTk3IDY2LjI0OSBMIDQ2LjMzNiA2Ni4yNDkgTCAzOS42NjIgNTkuNTc3IEwgNDIuNDkyIDU2Ljc0NiBMIDQ4LjAwNSA2Mi4yNTkgTCA1OS4zNDUgNjIuMjU5IEwgNDguMTczIDUxLjA2NiBMIDUxLjAyNCA0OC4yMTUgTCA2Mi4xOTYgNTkuMzg3IEwgNjIuMTk2IDQ4LjA0NiBMIDU2LjcwNiA0Mi41NTYgTCA1OS41MTQgMzkuNzQ3IEwgNDUuNjM5IDI1LjgwOCBMIDMxLjk1NCAyNS44MDggTCAzMS45NTQgMjUuODA4IEwgMTcuNzYzIDI1LjgwOCBMIDI1Ljc0NiAzMy43OTEgTCAyNS43NDYgMzMuODEyIEwgMjUuNzg4IDMzLjgxMiBMIDQyLjMwNCAzMy44MTIgTCA0OC4xNTMgMzkuNjYxIEwgMzkuNTk5IDQ4LjIxNSBMIDMzLjc1MSA0Mi4zNjUgTCAzMy43NTEgMzcuODI1IEwgMjUuNzQ2IDM3LjgyNSBMIDI1Ljc0NiA0NS42OCBMIDM5LjU5OSA1OS41MzUgTCAzMy45NjEgNjUuMTc0IEwgNDIuOTc4IDc0LjE5MiBMIDU2LjY2MiA3NC4xOTIgTCA4Mi4yMzggNzQuMTkyIEwgODIuMjM4IDc0LjE5MiBMIDc0LjI1NCA2Ni4yNDkgWiIgZmlsbD0iIzNjNzkwYSIvPiYjeGE7PC9zdmc+;fontStyle=1;fontColor=light-dark(#3c790a, #ededed);" vertex="1" parent="1">
          <mxGeometry x="480" y="454.4" width="49.23" height="49.23" as="geometry" />
        </mxCell>
        <mxCell id="RJAZ5B4Ulr-mCwqTg8RM-19" value="LAN" style="text;html=1;align=center;verticalAlign=middle;resizable=0;points=[];autosize=1;strokeColor=none;fillColor=none;fontColor=light-dark(#005073, #ededed);fontStyle=1" vertex="1" parent="1">
          <mxGeometry x="603.3399999999999" y="565" width="50" height="30" as="geometry" />
        </mxCell>
        <mxCell id="RJAZ5B4Ulr-mCwqTg8RM-29" style="edgeStyle=orthogonalEdgeStyle;rounded=0;orthogonalLoop=1;jettySize=auto;html=1;" edge="1" parent="1" source="RJAZ5B4Ulr-mCwqTg8RM-20" target="RJAZ5B4Ulr-mCwqTg8RM-9">
          <mxGeometry relative="1" as="geometry">
            <Array as="points">
              <mxPoint x="700" y="630" />
            </Array>
          </mxGeometry>
        </mxCell>
        <mxCell id="RJAZ5B4Ulr-mCwqTg8RM-37" value="(4) ACK + WOL Packet" style="edgeLabel;html=1;align=center;verticalAlign=middle;resizable=0;points=[];" vertex="1" connectable="0" parent="RJAZ5B4Ulr-mCwqTg8RM-29">
          <mxGeometry x="0.3981" relative="1" as="geometry">
            <mxPoint y="68" as="offset" />
          </mxGeometry>
        </mxCell>
        <mxCell id="RJAZ5B4Ulr-mCwqTg8RM-20" value="" style="rounded=1;whiteSpace=wrap;html=1;arcSize=12;absoluteArcSize=1;fillColor=none;strokeColor=light-dark(#00979c, #ededed);" vertex="1" parent="1">
          <mxGeometry x="575.36" y="750" width="171.31" height="110" as="geometry" />
        </mxCell>
        <mxCell id="RJAZ5B4Ulr-mCwqTg8RM-11" value="" style="shape=image;verticalLabelPosition=bottom;labelBackgroundColor=default;verticalAlign=top;aspect=fixed;imageAspect=0;editableCssRules=.*;image=data:image/svg+xml,PHN2ZyB4bWxucz0iaHR0cDovL3d3dy53My5vcmcvMjAwMC9zdmciIHN0cm9rZT0iIzAwOTc5YyIgaGVpZ2h0PSI1MzMuMjAzMzA4MTA1NDY4OCIgd2lkdGg9Ijc2Ni42NjU1ODgzNzg5MDYyIiB2aWV3Qm94PSItMjAuODAwMDAwMTkwNzM0ODYzIC0xNi4xMDAwMDEzMzUxNDQwNDMgNzY2LjY2NTU4ODM3ODkwNjIgNTMzLjIwMzMwODEwNTQ2ODgiPjxnIGZpbGw9Im5vbmUiPjxwYXRoIHN0cm9rZS13aWR0aD0iNTkiIGQ9Ik0xNzQgMzBDNzguOSAyMi40My0xIDEzNSAzOCAyMjJjMzggOTQuNCAxODEgMTIwIDI0OSA0NC40IDY1LjktNjQuNiA5MS4zLTE2NCAxNzItMjE1IDgyLTU2IDIxNC0zLjEyIDIzMCA5Ni40IDE1LjYgOTUuMy04Ny4xIDE4OC0xODAgMTYwLTY4LjctMTUuNS0xMTgtNzQuMi0xNDYtMTM2LTM0LjUtNTktNzkuNi0xMjItMTUwLTEzOC0xMi41LTIuODQtMjUuNC0zLjk2LTM4LjItMy45NHoiLz48cGF0aCBzdHJva2Utd2lkdGg9IjI1IiBkPSJtMTE4IDE2NWgxMjAiLz48cGF0aCBzdHJva2Utd2lkdGg9IjMyIiBkPSJtNDg2IDE2NWgxMDBtLTUxLTUwdjEwMCIvPjwvZz48cGF0aCBmaWxsPSIjMDA5NzljIiBkPSJNODQgNDg1bC02LjQtMjNIMzdsLTYuNiAyM0g4LjdsMzQuNC0xMTZoMzAuNmwzNC40IDExNnptLTI2LjQtOTVsLTE1LjMgNTQuMWgzMC40ek0xODAgNDg1cy0xMS43LTI3LjYtMTguMy00MWMtMy44My01Ljc2LTExLjQtOC4wMi0xOC03LjEtLjYgMTUuNy0uNDggNDguMS0uNDggNDguMWgtMjEuOVYzNjlzMzMtLjk3IDQ5LjQgMS4yYzM0LjcgMy45MiAzNyA1NC40IDIuMTMgNTkuNyA2LjU0IDIuNiAxMC41IDguNjUgMTMuMyAxNC44bDE3LjUgMzYuMmMxLjIzIDIuNDggMS4yIDQuNC0yLjM0IDQuMzh6bS01LjQyLTgyLjFjLS4xLTE3LjktMTgtMTUuOS0zMS4zLTE2djMyLjhjMTUuNy41MyAzMS0xLjA3IDMxLjMtMTYuOHpNMzAyIDQ1NWMtMTAuNiAyNC41LTMzLjggMzAuMi01NS44IDI5LjhoLTI2Ljl2LTExNmw0MC45LjJjNTAuNiAxLjY1IDUyLjQgNTYuMiA0MS43IDg2LjR6bS0yOC02MS4zYy0xMC4yLTguNzYtMjEuNC02Ljk3LTMyLjgtNi45N3Y3OS43YzEwIDAgMjAuOS44IDI5LjQtNS40IDE4LjEtMTEuNCAxNS44LTU0LjYgMy4zNS02Ny4zek00MDcgNDQyYzIuMTcgNTguNi04MS41IDU4LjQtODQgMTIuNy0xLjUzLTE0LS4yNy0yOC0uNjgtNDJ2LTQ0LjJoMjEuOWwuNCA4M2MyLjU3IDIyLjkgMzMgMjAuOSAzNy42IDguMiA0LjY2LTEwLjEgMi41LTIxLjUgMi45OC0zMi4zdi01OC45aDIxLjlWNDQyem0yMS01NnYtMTcuOWg3My41VjM4NmgtMjUuNnY4MC40aDI1LjZ2MTguMUg0Mjh2LTE4LjFoMjUuNlYzODZ6bTE1NSA5OWwtMzcuNi04NC40VjQ4NWgtMTkuOVYzNjloMjYuOWwzNy40IDgzLjZjLjEtNiAuMDQtODMuNi4wNC04My42aDE5Ljl2MTE2em0xMTctMTBjLTI0LjMgMjAuOS02Ni43IDE2LjMtNzUuMS0yNC45LTExLjUtNjIuNiAyMi40LTk4LjYgNjkuNi03Ny42IDI5IDE2LjMgMjcuNCA4My40IDUuNSAxMDN6bS0yOS4zLTg4LjdjLTIwLjctLjU1LTIzLjcgMjAuNi0yNC41IDMwLjgtLjE3IDE5LjMtMS44OCA1MS40IDI0LjkgNTAgOC4zIDAgMTUuNS02LjAyIDE4LjItMTMuNyA1LjQ1LTEyLjEgOS41Ni02OC4xLTE4LjYtNjcuMXpNNjc2IDEzLjR2Mi4zNGg1LjE1djEzLjZoMi42NnYtMTMuNmg1LjJWMTMuNHptMTQuOCAwdjE1LjloMi40M1YxNS43bDQuMyAxMy42aDIuNGw0LjEtMTMuM3YxMy4zaDIuNFYxMy40aC0zLjhsLTMuOSAxMi43LTQtMTIuN3oiLz48dGl0bGU+d2lraTpCZWhuYW0gTjwvdGl0bGU+PC9zdmc+;" vertex="1" parent="1">
          <mxGeometry x="593.3399999999999" y="786.93" width="73.21" height="50.88" as="geometry" />
        </mxCell>
        <mxCell id="RJAZ5B4Ulr-mCwqTg8RM-14" value="(Client)" style="shape=image;verticalLabelPosition=bottom;labelBackgroundColor=none;verticalAlign=top;aspect=fixed;imageAspect=0;editableCssRules=.*;image=data:image/svg+xml,PHN2ZyB4bWxucz0iaHR0cDovL3d3dy53My5vcmcvMjAwMC9zdmciIG92ZXJmbG93PSJ2aXNpYmxlIiB2aWV3Qm94PSI1MyAzMC43OTk5OTkyMzcwNjA1NDcgNTk0IDUzNi43MDAwMTIyMDcwMzEyIiB3aWR0aD0iNTk0IiBoZWlnaHQ9IjUzNi43MDAwMTIyMDcwMzEyIj48cGF0aCBmaWxsPSIjNjA2IiBkPSJNMTM1LjkgNDc2LjVsMy44IDguOSAzLjgtOS4xIDQuMS04LjUgMzkuNi03OGMuNy0xLjMgMS40LTIuNCAyLjItMy4xLjctLjcgMS42LTEuMyAyLjUtMS42LjktLjQgMi0uNSAzLjEtLjVoMzEuNHYxNTQuMWgtMzEuNVY0NTBjMC00LjMuMi05IC42LTE0bC00MC44IDc5LjNjLTEuMyAyLjUtMyA0LjMtNS4xIDUuNi0yLjIgMS4zLTQuNiAxLjktNy40IDEuOWgtNC45Yy0yLjggMC01LjItLjYtNy40LTEuOXMtMy45LTMuMS01LjEtNS42bC00MS4xLTc5LjRjLjMgMi41LjUgNC45LjYgNy40bC4yIDYuN3Y4OC43SDUzVjM4NC41aDMxLjRjMS4yIDAgMi4yLjIgMy4xLjVhOS42MyA5LjYzIDAgMCAxIDIuNSAxLjZjLjcuNyAxLjUgMS44IDIuMiAzLjFsMzkuNyA3OC4zIDQgOC41em0yNTkuNS0xNWMwIDYuNi0uNyAxMy0yLjEgMTkuMXMtMy40IDExLjgtNS45IDE3LjJjLTIuNiA1LjQtNS44IDEwLjMtOS41IDE0LjktMy44IDQuNi04LjEgOC42LTEyLjkgMTIuMmwzOSA0Mi42aC0yOS40Yy00LjIgMC04LjEtLjUtMTEuNS0xLjUtMy41LTEtNi41LTMuMS05LjItNi4ybC0xOS4yLTIxLjVjLTMuMS42LTYuMyAxLjEtOS41IDEuNXMtNi41LjUtOS45LjVjLTEyIDAtMjIuOS0yLTMyLjgtNnMtMTguMy05LjYtMjUuMy0xNi43YTc0LjEzIDc0LjEzIDAgMCAxLTE2LjMtMjVjLTMuOC05LjYtNS44LTIwLTUuOC0zMS4xczEuOS0yMS41IDUuOC0zMS4xYTc0LjEzIDc0LjEzIDAgMCAxIDE2LjMtMjVjNy03LjEgMTUuNS0xMi42IDI1LjMtMTYuNiA5LjktNCAyMC44LTYgMzIuOC02czIyLjkgMiAzMi43IDYuMSAxOC4zIDkuNiAyNS4yIDE2LjdjNyA3LjEgMTIuNCAxNS40IDE2LjIgMjUgNC4xIDkuNSA2IDE5LjggNiAzMC45em0tMzYuNiAwYzAtNy42LTEtMTQuNS0zLTIwLjZzLTQuOC0xMS4zLTguNS0xNS41LTguMi03LjUtMTMuNi05LjdjLTUuNC0yLjMtMTEuNS0zLjQtMTguMy0zLjQtNi45IDAtMTMuMSAxLjEtMTguNSAzLjRzLTkuOSA1LjUtMTMuNiA5LjctNi41IDkuNC04LjUgMTUuNS0zIDEzLTMgMjAuNmMwIDcuNyAxIDE0LjYgMyAyMC43czQuOCAxMS4zIDguNSAxNS41IDguMyA3LjUgMTMuNiA5LjdjNS40IDIuMiAxMS41IDMuMyAxOC41IDMuMyA2LjggMCAxMi45LTEuMSAxOC4zLTMuM3M5LjktNS40IDEzLjYtOS43YzMuNy00LjIgNi41LTkuNCA4LjUtMTUuNXMzLTEzIDMtMjAuN3ptMTUxLTc3LjF2MjguNGgtNDEuNHYxMjUuOGgtMzUuOFY0MTIuOGgtNDEuNHYtMjguNGgxMTguNnptMTM3LjIgMHYyOC40aC00My40djEyNS44aC0zNS44VjQxMi44aC00MS40di0yOC40SDY0N3oiLz48cGF0aCBmaWxsPSIjZmZmIiBkPSJNMTk3LjEgMTU3LjZ2NDYuN2M3My44LjEgMTM0IDU5LjMgMTM1IDEzMi40aDQ1LjVjLTEuMS05OC4zLTgxLjUtMTc4LjEtMTgwLjUtMTc5LjF6bTAtOTYuNXY0Ni43YzEyNy40LjEgMjMxLjEgMTAyLjUgMjMyLjEgMjI4LjloNDUuNWMtMS0xNTEuNS0xMjUtMjc0LjYtMjc3LjYtMjc1LjZ6bTMwNS44IDE1Ni4ydi05NS45QzQ5MS4xIDEwNS4zIDQ3NyA4OCA0NjIuNSA3My42Yy0xNi0xNS45LTM0LjEtMzAuMS01Mi4zLTQyLjdIMzA5Yzg4LjMgMzEuOCAxNTkuMSAxMDAgMTkzLjkgMTg2LjR6Ii8+PHBhdGggZmlsbD0iIzYwNiIgZD0iTTE5Ny4xIDIwNC40djExNy4xYzAgOC40IDYuOCAxNS4zIDE1LjMgMTUuM0gzMzJjLTEtNzMuMi02MS4xLTEzMi40LTEzNC45LTEzMi40em0wLTk2LjZ2NDkuOGM5OSAuOSAxNzkuNCA4MC43IDE4MC40IDE3OS4xaDUxLjdjLTEtMTI2LjMtMTA0LjctMjI4LjgtMjMyLjEtMjI4Ljl6bTMwNS44IDIxMy42VjIxNy4zQzQ2OC4xIDEzMC45IDM5Ny4zIDYyLjcgMzA5IDMwLjhoLTk2LjZjLTguNCAwLTE1LjMgNi44LTE1LjMgMTUuM3YxNWMxNTIuNi45IDI3Ni42IDEyNCAyNzcuNiAyNzUuNmgxM2M4LjQgMCAxNS4yLTYuOCAxNS4yLTE1LjN6TTQ2Mi42IDczLjZjMTQuNSAxNC40IDI4LjYgMzEuNyA0MC40IDQ3LjhWNDYuMWMwLTguNC02LjgtMTUuMy0xNS4zLTE1LjNoLTc3LjNjMTggMTIuNiAzNi4yIDI2LjkgNTIuMiA0Mi44eiIvPjwvc3ZnPg==;fontStyle=1;fontColor=light-dark(#660066, #ededed);" vertex="1" parent="1">
          <mxGeometry x="686.6700000000001" y="780" width="45.09" height="40.77" as="geometry" />
        </mxCell>
        <mxCell id="RJAZ5B4Ulr-mCwqTg8RM-23" value="WOL Controller" style="text;html=1;align=center;verticalAlign=middle;resizable=0;points=[];autosize=1;strokeColor=none;fillColor=none;fontColor=light-dark(#00979c, #ededed);fontStyle=1" vertex="1" parent="1">
          <mxGeometry x="573.3399999999999" y="750" width="110" height="30" as="geometry" />
        </mxCell>
        <mxCell id="RJAZ5B4Ulr-mCwqTg8RM-25" style="edgeStyle=orthogonalEdgeStyle;rounded=0;orthogonalLoop=1;jettySize=auto;html=1;" edge="1" parent="1" source="RJAZ5B4Ulr-mCwqTg8RM-5" target="RJAZ5B4Ulr-mCwqTg8RM-13">
          <mxGeometry relative="1" as="geometry">
            <mxPoint x="340" y="520" as="sourcePoint" />
            <mxPoint x="630" y="520" as="targetPoint" />
            <Array as="points">
              <mxPoint x="480" y="440" />
              <mxPoint x="480" y="440" />
            </Array>
          </mxGeometry>
        </mxCell>
        <mxCell id="RJAZ5B4Ulr-mCwqTg8RM-33" value="(7) ACK" style="edgeLabel;html=1;align=center;verticalAlign=middle;resizable=0;points=[];" vertex="1" connectable="0" parent="RJAZ5B4Ulr-mCwqTg8RM-25">
          <mxGeometry x="0.0672" relative="1" as="geometry">
            <mxPoint as="offset" />
          </mxGeometry>
        </mxCell>
      </root>
    </mxGraphModel>
  </diagram>
</mxfile>
